<?xml version="1.0" encoding="utf-8"?>
<svg width="20" height="23" viewBox="0 0 20 23" fill="none" xmlns="http://www.w3.org/2000/svg">
  <g id="SingleElement">
    <path id="Oval" d="M14.04 9.5C14.04 9.5 16 9.5 16 9.5C16 14.7467 12.4182 19 8 19C3.58179 19 0 14.7467 0 9.5C0 4.2533 3.58179 0 8 0C12.4182 0 16 4.2533 16 9.5C16 9.5 14.04 9.5 14.04 9.5C14.04 5.53876 11.3357 2.32751 8 2.32751C4.66431 2.32751 1.95996 5.53876 1.95996 9.5C1.95996 13.4612 4.66431 16.6725 8 16.6725C11.3357 16.6725 14.04 13.4612 14.04 9.5Z" fill="#FFFFFF" fill-rule="evenodd" transform="translate(2 0)" />
    <rect id="Rectangle" width="20" height="13" fill="#FFFFFF" fill-rule="evenodd" transform="translate(0 10)" />
  </g>
</svg>